{"title":"Marvels Agents of S.H.I.E.L.D. S01E10 HDTV 480p x264 AAC [GWC].m","uid":9333946,"size":156755632,"categoryP":"video","categoryS":"tv_shows","magnet":"?xt=urn:btih:9e4bc578348925ce2cd28530e031e5f7d63791a4&amp;dn=Marvels+Agents+of+S.H.I.E.L.D.+S01E10+HDTV+480p+x264+AAC+%5BGWC%5D.m&amp;tr=udp%3A%2F%2Ftracker.openbittorrent.com%3A80&amp;tr=udp%3A%2F%2Fopen.demonii.com%3A1337&amp;tr=udp%3A%2F%2Ftracker.coppersurfer.tk%3A6969&amp;tr=udp%3A%2F%2Fexodus.desync.com%3A6969","seeders":0,"leechers":0,"uploader":"canc232","files":1,"time":1386819947,"description":"Marvels Agents of S.H.I.E.L.D. - S01E10 480p x264 AAC [GWC] \n\n\n\nSCREENS :\n\n &lt;a href=&quot;\nhttp://s20.postimg.org/6m7gwlp8d/Marvels_Agents_of_S_H_I_E_L_D_S01_E10_HDTV_480p.jpg&quot; rel=&quot;nofollow&quot; target=&quot;_NEW&quot;&gt;\nhttp://s20.postimg.org/6m7gwlp8d/Marvels_Agents_of_S_H_I_E_L_D_S01_E10_HDTV_480p.jpg&lt;/a&gt;\n &lt;a href=&quot;\nhttp://s20.postimg.org/tme48xn25/Marvels_Agents_of_S_H_I_E_L_D_S01_E10_HDTV_480p.jpg&quot; rel=&quot;nofollow&quot; target=&quot;_NEW&quot;&gt;\nhttp://s20.postimg.org/tme48xn25/Marvels_Agents_of_S_H_I_E_L_D_S01_E10_HDTV_480p.jpg&lt;/a&gt;\n &lt;a href=&quot;\nhttp://s20.postimg.org/vpojglmv1/Marvels_Agents_of_S_H_I_E_L_D_S01_E10_HDTV_480p.jpg&quot; rel=&quot;nofollow&quot; target=&quot;_NEW&quot;&gt;\nhttp://s20.postimg.org/vpojglmv1/Marvels_Agents_of_S_H_I_E_L_D_S01_E10_HDTV_480p.jpg&lt;/a&gt;\n\n\n\nMEDIA INFO :\n\nGeneral \nFormat : MPEG-4 \nFormat profile : Base Media\nFile size : 149 MiB \nDuration : 41mn 25s \nOverall bit rate mode : Variable \nOverall bit rate : 505 Kbps\n\nVideo \nFormat : AVC\nFormat profile : &lt;a class=&quot;__cf_email__&quot; href=&quot;/cdn-cgi/l/email-protection&quot; data-cfemail=&quot;024a6b656a424e312c32&quot;&gt;[email&amp;#160;protected]&lt;/a&gt;&lt;script data-cfhash='f9e31' type=&quot;text/javascript&quot;&gt;\n/* &lt;![CDATA[ */!function(){try{var t=&quot;currentScript&quot;in document?document.currentScript:function(){for(var t=document.getElementsByTagName(&quot;script&quot;),e=t.length;e--;)if(t[e].getAttribute(&quot;data-cfhash&quot;))return t[e]}();if(t&amp;&amp;t.previousSibling){var e,r,n,i,c=t.previousSibling,a=c.getAttribute(&quot;data-cfemail&quot;);if(a){for(e=&quot;&quot;,r=parseInt(a.substr(0,2),16),n=2;a.length-n;n+=2)i=parseInt(a.substr(n,2),16)^r,e+=String.fromCharCode(i);e=document.createTextNode(e),c.parentNode.replaceChild(e,c)}t.parentNode.removeChild(t);}}catch(u){}}()/* ]]&gt; */&lt;/script&gt; \nFormat settings, CABAC : Yes \nFormat settings, ReFrames : 5 frames\nDuration : 41mn 25s \nBit rate : 440 Kbps \nWidth : 720 pixels \nHeight : 404 pixels \nDisplay aspect ratio : 16:9 \nFrame rate mode : Variable \nFrame rate : 23.976 fps\nStream size : 130 MiB (87%) \nTitle : Marvels Agents of S.H.I.E.L.D. - S01E10 480p x264 AAC [GWC] \nWriting library : x264 core \nLanguage : English\n\nAudio \nFormat : AAC \nFormat profile : HE-AAC / LC \nDuration : 41mn 25s \nBit rate mode : Variable \nChannel(s) : 2 channels \nSampling rate : 48.0 KHz / 24.0 KHz \nStream size : 17.8 MiB (12%)\nLanguage : English ","torrent":{"xt":"urn:btih:9e4bc578348925ce2cd28530e031e5f7d63791a4","amp;dn":"Marvels+Agents+of+S.H.I.E.L.D.+S01E10+HDTV+480p+x264+AAC+%5BGWC%5D.m","amp;tr":["udp%3A%2F%2Ftracker.openbittorrent.com%3A80","udp%3A%2F%2Fopen.demonii.com%3A1337","udp%3A%2F%2Ftracker.coppersurfer.tk%3A6969","udp%3A%2F%2Fexodus.desync.com%3A6969"],"infoHash":"9e4bc578348925ce2cd28530e031e5f7d63791a4","infoHashBuffer":{"type":"Buffer","data":[158,75,197,120,52,137,37,206,44,210,133,48,224,49,229,247,214,55,145,164]},"announce":[],"urlList":[]}}